<svg xmlns="http://www.w3.org/2000/svg" viewBox="124.33500000000001 117.619 326.3300018310547 356.49100061035153"> <svg x="214.899" y="187.619" xmlns="http://www.w3.org/2000/svg" preserveAspectRatio="xMinYMin" width="145.2020251316744" height="145.20196533203125" fill="#ffffff" fill-opacity="1" style="overflow: visible;"><rect x="0" y="0" height="145.202" width="145.202" stroke-width="0" stroke="#000" style=""></rect></svg> <svg xmlns="http://www.w3.org/2000/svg" id="Layer_2" dataName="Layer 2" viewBox="0 0 147.86000061035156 107.8499984741211" height="86.79248310567431" width="118.9906005859375" y="216.824" x="228.005" preserveAspectRatio="xMinYMin" style="overflow: visible;"><polygon class="cls-3" points="147.86 0 117.86 77.85 107.86 30 89.42 77.85 40 77.85 58.44 30 70 0 147.86 0" style="fill: #03091f; fill-opacity: 1;"></polygon><polygon class="cls-1" points="107.86 30 89.42 77.85 77.86 107.85 0 107.85 30 30 107.86 30" style="fill: #03091f; fill-opacity: 1;"></polygon><polygon class="cls-2" points="117.86 77.85 89.42 77.85 107.86 30 117.86 77.85" style="fill: #1DBF73; fill-opacity: 1;"></polygon></svg> <svg xmlns="http://www.w3.org/2000/svg" y="358" viewBox="3.75 27 186.3300018310547 46.11000061035156" x="194.335" height="46.11000061035156" width="186.3300018310547" style="overflow: visible;"><g fill="#ffffff" fill-opacity="1" style=""><path d="M12.65 72.45L3.75 72.45L3.75 30.03L12.65 30.03L12.65 72.45ZM29.05 72.45L20.15 72.45L20.15 41.23L28.39 41.23L28.72 44.19Q30.63 42.75 33.56 41.66Q36.49 40.57 39.72 40.57L39.72 40.57Q45.91 40.57 48.74 43.47Q51.57 46.37 51.57 52.43L51.57 52.43L51.57 72.45L42.68 72.45L42.68 52.89Q42.68 49.73 41.40 48.41Q40.11 47.09 36.62 47.09L36.62 47.09Q34.58 47.09 32.50 48.01Q30.43 48.94 29.05 50.32L29.05 50.32L29.05 72.45ZM69.35 72.45L60.46 72.45L60.46 48.08L56.12 48.08L56.12 41.23L60.46 41.23L60.46 38.07Q60.46 33.20 63.23 30.10Q66.00 27.00 71.40 27.00L71.40 27.00Q73.57 27.00 75.28 27.33Q76.99 27.66 78.44 28.26L78.44 28.26L78.44 34.38Q77.46 34.05 76.53 33.85Q75.61 33.66 74.49 33.66L74.49 33.66Q71.66 33.66 70.51 34.68Q69.35 35.70 69.35 38.20L69.35 38.20L69.35 41.23L77.26 41.23L76.86 48.08L69.35 48.08L69.35 72.45ZM91.95 73.11L91.95 73.11Q87.40 73.11 85.33 71.00Q83.25 68.89 83.25 64.28L83.25 64.28L83.25 28.06L92.14 28.06L92.14 63.56Q92.14 65.20 92.80 65.83Q93.46 66.46 94.71 66.46L94.71 66.46Q96.42 66.46 97.81 66.00L97.81 66.00L97.81 72.12Q95.30 73.11 91.95 73.11ZM119.15 73.11L119.15 73.11Q111.05 73.11 106.30 69.06Q101.56 65.01 101.56 56.77L101.56 56.77Q101.56 49.33 105.55 44.95Q109.53 40.57 117.43 40.57L117.43 40.57Q124.68 40.57 128.53 44.36Q132.39 48.15 132.39 54.27L132.39 54.27L132.39 59.94L109.79 59.94Q110.52 63.69 113.25 65.07Q115.99 66.46 120.99 66.46L120.99 66.46Q123.49 66.46 126.10 66.00Q128.70 65.53 130.54 64.81L130.54 64.81L130.54 71.13Q128.37 72.12 125.47 72.61Q122.57 73.11 119.15 73.11ZM109.79 54.47L109.79 54.47L124.61 54.47L124.61 52.76Q124.61 50.06 123.03 48.51Q121.45 46.96 117.70 46.96L117.70 46.96Q113.28 46.96 111.54 48.74Q109.79 50.52 109.79 54.47ZM154.52 73.11L154.52 73.11Q146.15 73.11 141.70 68.96Q137.26 64.81 137.26 56.84L137.26 56.84Q137.26 48.61 142.03 44.59Q146.81 40.57 154.78 40.57L154.78 40.57Q158.07 40.57 160.44 41.03Q162.81 41.49 165.05 42.55L165.05 42.55L165.05 48.94Q163.41 48.15 161.23 47.69Q159.06 47.22 156.56 47.22L156.56 47.22Q151.55 47.22 148.92 49.30Q146.28 51.37 146.28 56.84L146.28 56.84Q146.28 61.85 148.69 64.15Q151.09 66.46 156.49 66.46L156.49 66.46Q158.80 66.46 161.00 66.00Q163.21 65.53 165.12 64.61L165.12 64.61L165.12 71.20Q160.71 73.11 154.52 73.11ZM183.10 73.11L183.10 73.11Q177.70 73.11 175.10 70.28Q172.50 67.44 172.50 62.57L172.50 62.57L172.50 48.08L168.08 48.08L168.08 41.23L172.50 41.23L172.50 34.51L181.39 31.88L181.39 41.23L189.29 41.23L188.76 48.08L181.39 48.08L181.39 61.98Q181.39 64.55 182.57 65.50Q183.76 66.46 186.26 66.46L186.26 66.46Q188.11 66.46 190.08 65.80L190.08 65.80L190.08 71.92Q188.63 72.52 186.92 72.81Q185.21 73.11 183.10 73.11Z" transform="translate(0, 0)"></path></g></svg></svg>